<?xml version="1.0" standalone="no"?>
<!DOCTYPE svg PUBLIC "-//W3C//DTD SVG 20010904//EN"
 "http://www.w3.org/TR/2001/REC-SVG-20010904/DTD/svg10.dtd">
<svg version="1.0" xmlns="http://www.w3.org/2000/svg"
 width="512.000000pt" height="512.000000pt" viewBox="0 0 512.000000 512.000000"
 preserveAspectRatio="xMidYMid meet">
<metadata>
Created by potrace 1.11, written by Peter Selinger 2001-2013
</metadata>
<g transform="translate(0.000000,512.000000) scale(0.100000,-0.100000)"
fill="#000000" stroke="none">
<path d="M410 4210 l0 -260 259 0 259 0 0 260 0 260 -259 0 -259 0 0 -260z
m372 144 c51 -17 128 -78 128 -100 0 -8 -13 -23 -30 -32 -16 -9 -32 -28 -36
-42 -6 -19 -8 -21 -11 -8 -4 16 -7 17 -34 3 -16 -9 -29 -22 -29 -29 0 -8 -7
-17 -16 -20 -26 -10 -64 -7 -64 5 0 11 -43 9 -89 -2 -8 -2 -23 10 -35 26 -12
17 -25 32 -31 34 -49 19 -56 45 -25 97 45 72 170 103 272 68z"/>
<path d="M3688 4453 c-2 -9 -2 -126 0 -260 l3 -243 259 0 260 0 0 260 0 260
-259 0 c-234 0 -260 -2 -263 -17z m329 -108 c13 -13 14 -20 5 -23 -6 -2 -12
-12 -12 -22 0 -11 -6 -23 -14 -27 -8 -4 -24 -25 -36 -45 -19 -32 -20 -38 -6
-38 19 0 20 -5 5 -31 -7 -13 -16 -18 -29 -14 -23 7 -36 -11 -20 -30 10 -12 9
-15 -3 -15 -8 0 -17 -6 -20 -12 -6 -19 -37 10 -54 49 -30 73 -8 167 50 216 28
23 107 18 134 -8z"/>
<path d="M1450 4122 c-6 -2 -10 -69 -10 -173 l0 -169 -170 0 -170 0 -2 -171
-3 -171 -342 0 c-314 1 -343 -1 -343 -16 -3 -220 -5 -2752 -3 -2752 2 0 76 36
164 80 l161 80 237 0 238 0 44 80 44 79 78 1 79 0 -21 -35 c-49 -81 -59 -102
-66 -130 -5 -16 -9 -34 -9 -38 -1 -4 -8 -12 -16 -17 -13 -8 -12 -10 3 -10 10
0 46 14 80 32 34 17 75 34 91 37 24 5 36 20 70 84 l40 77 78 0 79 0 -57 -107
c-30 -60 -55 -110 -54 -113 1 -3 -9 -8 -22 -12 -13 -4 -6 -5 16 -2 22 3 70 21
108 40 37 19 75 34 85 34 12 0 32 26 59 78 28 53 47 77 60 78 12 1 13 -1 4 -3
-9 -2 -33 -36 -54 -76 -21 -40 -49 -87 -62 -106 -13 -19 -24 -38 -24 -42 0 -5
38 -9 84 -9 79 0 90 3 181 46 53 25 99 44 100 42 2 -2 -5 -22 -15 -46 l-19
-42 89 0 c84 0 94 2 186 45 53 25 98 45 100 45 3 0 -5 -18 -16 -40 -11 -21
-20 -42 -20 -45 0 -3 41 -5 90 -5 80 0 97 3 148 29 31 16 74 36 94 44 l37 15
-19 -44 -19 -44 93 0 c88 0 98 2 180 40 47 22 89 40 91 40 3 0 -2 -16 -10 -36
-8 -20 -15 -38 -15 -40 0 -2 40 -4 89 -4 67 0 101 5 135 20 25 11 67 29 92 40
40 17 45 18 40 4 -3 -9 -9 -27 -12 -40 l-6 -24 91 0 91 0 193 87 c159 72 203
87 255 91 l62 4 -2 1252 -3 1251 -342 -2 -343 -3 0 175 0 175 -175 0 -175 0 0
174 0 173 -855 -1 c-470 -1 -859 -2 -865 -4z m688 -3072 c-5 -17 -14 -33 -20
-36 -6 -4 -5 3 1 15 15 28 9 27 -58 -11 -74 -41 -57 -24 22 23 34 21 63 38 64
38 1 1 -3 -13 -9 -29z m-47 -93 c-10 -9 -11 -8 -5 6 3 10 9 15 12 12 3 -3 0
-11 -7 -18z m-670 -136 c-8 -5 -20 -7 -28 -4 -21 8 -15 13 15 13 20 0 23 -3
13 -9z m329 5 c0 -2 -12 -12 -27 -22 -20 -13 -25 -13 -16 -2 7 8 10 18 6 21
-3 4 3 7 15 7 12 0 22 -2 22 -4z"/>
<path d="M1508 753 c7 -3 16 -2 19 1 4 3 -2 6 -13 5 -11 0 -14 -3 -6 -6z"/>
</g>
</svg>
